# xmcd
#
# Track frame offsets: 
#        150
#        14353
#        30251
#        44462
#        61472
#        77001
#        92828
#        107083
#        126290
#        140598
#        159458
#        173641
#
# Disc length: 2481 seconds
#
# Revision: 0
# Processed by: cddbd v1.5.2PL0 Copyright (c) Steve Scherf et al.
# Submitted via: ExactAudioCopy v0.95b4
#
DISCID=9609af0c
DTITLE=Liam McLaughlin - Teach Me To Forget
DYEAR=2006
DGENRE=Country
TTITLE0=Blue Ridge Mountain Girl
TTITLE1=Dancin' Her Out Of His Mind
TTITLE2=Back To Erin's Isle
TTITLE3=You're The Best Friend
TTITLE4=Lets Turn Back The Years
TTITLE5=Teach Me To Forget
TTITLE6=Back Home In County Antrim
TTITLE7=Which Bridge To Cross
TTITLE8=Back On My Mind
TTITLE9=Back In Love By Monday
TTITLE10=Come Early Morning
TTITLE11=Everybody Dance
EXTD=
EXTT0=
EXTT1=
EXTT2=
EXTT3=
EXTT4=
EXTT5=
EXTT6=
EXTT7=
EXTT8=
EXTT9=
EXTT10=
EXTT11=
PLAYORDER=
